<?xml version="1.0" standalone="no"?><!DOCTYPE svg PUBLIC "-//W3C//DTD SVG 1.1//EN" "http://www.w3.org/Graphics/SVG/1.1/DTD/svg11.dtd"><svg class="icon" width="12px" height="12.00px" viewBox="0 0 1024 1024" version="1.1" xmlns="http://www.w3.org/2000/svg"><path fill="#EA2000" d="M760.673 62.534H263.326c-19.78 0-35.815 15.784-35.815 35.254v828.423c0 19.47 16.035 35.254 35.815 35.254h497.347c19.78 0 35.815-15.784 35.815-35.254V97.788c0-19.47-16.035-35.254-35.815-35.254zM482.069 111.14h59.86c11.02 0 19.954 8.934 19.954 19.954 0 11.02-8.933 19.953-19.953 19.953h-59.86c-11.02 0-19.954-8.933-19.954-19.953s8.933-19.954 19.953-19.954z m69.838 807.348h-79.814v-79.814h79.814v79.814z m184.186-138.986c0 19.781-16.035 35.816-35.816 35.816H323.723c-19.78 0-35.816-16.035-35.816-35.816v-569.95c0-19.78 16.035-35.815 35.816-35.815h376.554c19.78 0 35.816 16.035 35.816 35.816v569.95z"  /></svg>